name rise31.4854peak64.571fall78.6902.mot
datacolumns 19
datarows 29
range 17.79827000000000 17.84492900000000
endheader
time	ground_force1_vx	ground_force1_vy	ground_force1_vz	ground_force1_px	ground_force1_py	ground_force1_pz	ground_force2_vx	ground_force2_vy	ground_force2_vz	ground_force2_px	ground_force2_py	ground_force2_pz	ground_torque1_x	ground_torque1_y	ground_torque1_z	ground_torque2_x	ground_torque2_y	ground_torque2_z	
17.79827000000000	-8.54684000000000	40.92744600000000	-11.90535200000000	0.29585100000000	0.00000000000000	0.09399200000000	-46.41099600000000	771.51323400000001	-51.49502500000000	0.11278200000000	0.00000000000000	-0.09399100000000	0.00000000000000	-7.00142000000000	0.00000000000000	0.00000000000000	-18.58672800000000	0.00000000000000	
17.79993000000000	-9.40167800000000	47.91513700000000	-13.39554900000000	0.30125100000000	0.00000000000000	0.09483200000000	-46.76760500000000	768.64720299999999	-51.04446600000000	0.11230800000000	0.00000000000000	-0.09388300000000	0.00000000000000	-7.98010400000000	0.00000000000000	0.00000000000000	-18.51506200000000	0.00000000000000	
17.80159900000000	-10.10191800000000	54.97900900000000	-14.75303800000000	0.30614500000000	0.00000000000000	0.09560500000000	-47.14511900000000	765.69839400000001	-50.57311000000000	0.11183700000000	0.00000000000000	-0.09377000000000	0.00000000000000	-8.89839500000000	0.00000000000000	0.00000000000000	-18.44667000000000	0.00000000000000	
17.80326700000000	-10.62412100000000	62.02808600000000	-15.94656200000000	0.31061000000000	0.00000000000000	0.09632200000000	-47.54364300000000	762.66608699999995	-50.08113600000000	0.11137200000000	0.00000000000000	-0.09365300000000	0.00000000000000	-9.73549900000000	0.00000000000000	0.00000000000000	-18.38159600000000	0.00000000000000	
17.80493300000000	-10.95408300000000	68.99432700000000	-16.95543500000000	0.31470800000000	0.00000000000000	0.09699000000000	-47.96318400000000	759.54942000000005	-49.56874300000000	0.11091100000000	0.00000000000000	-0.09353000000000	0.00000000000000	-10.47671500000000	0.00000000000000	0.00000000000000	-18.31986000000000	0.00000000000000	
17.80660200000000	-11.08672800000000	75.83467300000000	-17.76968400000000	0.31848900000000	0.00000000000000	0.09761500000000	-48.40363700000000	756.34738700000003	-49.03615100000000	0.11045400000000	0.00000000000000	-0.09340300000000	0.00000000000000	-11.11371700000000	0.00000000000000	0.00000000000000	-18.26145900000000	0.00000000000000	
17.80826600000000	-11.02527700000000	82.53070500000000	-18.38929600000000	0.32199300000000	0.00000000000000	0.09820300000000	-48.86479200000000	753.05884500000002	-48.48360000000000	0.11000300000000	0.00000000000000	-0.09327100000000	0.00000000000000	-11.64425600000000	0.00000000000000	0.00000000000000	-18.20636400000000	0.00000000000000	
17.80993300000000	-10.77988000000000	89.08632299999999	-18.82276800000000	0.32525700000000	0.00000000000000	0.09875900000000	-49.34632300000000	749.68250799999998	-47.91134800000000	0.10955600000000	0.00000000000000	-0.09313500000000	0.00000000000000	-12.07142500000000	0.00000000000000	0.00000000000000	-18.15451900000000	0.00000000000000	
17.81159900000000	-10.36591700000000	95.52398700000001	-19.08522100000000	0.32830800000000	0.00000000000000	0.09928600000000	-49.84779000000000	746.21695499999998	-47.31967400000000	0.10911500000000	0.00000000000000	-0.09299300000000	0.00000000000000	-12.40259500000000	0.00000000000000	0.00000000000000	-18.10584500000000	0.00000000000000	
17.81326300000000	-9.80216900000000	101.88008300000000	-19.19629100000000	0.33117100000000	0.00000000000000	0.09978600000000	-50.36863600000000	742.66062999999997	-46.70887500000000	0.10867900000000	0.00000000000000	-0.09284700000000	0.00000000000000	-12.64819900000000	0.00000000000000	0.00000000000000	-18.06023400000000	0.00000000000000	
17.81492900000000	-9.10902300000000	108.19994400000000	-19.17802000000000	0.33386600000000	0.00000000000000	0.10026300000000	-50.90818400000000	739.01184899999998	-46.07926900000000	0.10824900000000	0.00000000000000	-0.09269500000000	0.00000000000000	-12.82046400000000	0.00000000000000	0.00000000000000	-18.01755500000000	0.00000000000000	
17.81660500000000	-8.30686200000000	114.53299699999999	-19.05292100000000	0.33641000000000	0.00000000000000	0.10071900000000	-51.46563700000000	735.26880500000004	-45.43118900000000	0.10782500000000	0.00000000000000	-0.09253900000000	0.00000000000000	-12.93221700000000	0.00000000000000	0.00000000000000	-17.97764800000000	0.00000000000000	
17.81827000000000	-7.41473500000000	120.92839900000000	-18.84232900000000	0.33881700000000	0.00000000000000	0.10115500000000	-52.04007800000000	731.42957300000000	-44.76499300000000	0.10740700000000	0.00000000000000	-0.09237800000000	0.00000000000000	-12.99585300000000	0.00000000000000	0.00000000000000	-17.94033000000000	0.00000000000000	
17.81993600000000	-6.44934900000000	127.43142200000000	-18.56513100000000	0.34110100000000	0.00000000000000	0.10157400000000	-52.63046800000000	727.49212000000000	-44.08105300000000	0.10699500000000	0.00000000000000	-0.09221200000000	0.00000000000000	-13.02250800000000	0.00000000000000	0.00000000000000	-17.90539100000000	0.00000000000000	
17.82160200000000	-5.42442900000000	134.08072999999999	-18.23690700000000	0.34327200000000	0.00000000000000	0.10197600000000	-53.23564700000000	723.45430899999997	-43.37976400000000	0.10659000000000	0.00000000000000	-0.09204200000000	0.00000000000000	-13.02147600000000	0.00000000000000	0.00000000000000	-17.87259400000000	0.00000000000000	
17.82326600000000	-4.35040900000000	140.90660299999999	-17.86946100000000	0.34533900000000	0.00000000000000	0.10236300000000	-53.85433600000000	719.31391399999995	-42.66153900000000	0.10619100000000	0.00000000000000	-0.09186600000000	0.00000000000000	-12.99986800000000	0.00000000000000	0.00000000000000	-17.84168200000000	0.00000000000000	
17.82493800000000	-3.23443000000000	147.93007600000001	-17.47072900000000	0.34731100000000	0.00000000000000	0.10273500000000	-54.48513800000000	715.06862300000000	-41.92681300000000	0.10579900000000	0.00000000000000	-0.09168600000000	0.00000000000000	-12.96249200000000	0.00000000000000	0.00000000000000	-17.81237100000000	0.00000000000000	
17.82660100000000	-2.08058400000000	155.16287800000001	-17.04498400000000	0.34919300000000	0.00000000000000	0.10309500000000	-55.12653900000000	710.71605899999997	-41.17603900000000	0.10541400000000	0.00000000000000	-0.09150100000000	0.00000000000000	-12.91194200000000	0.00000000000000	0.00000000000000	-17.78435600000000	0.00000000000000	
17.82826800000000	-0.89034400000000	162.60804600000000	-16.59328000000000	0.35099100000000	0.00000000000000	0.10344200000000	-55.77691200000000	706.25378200000000	-40.40969400000000	0.10503700000000	0.00000000000000	-0.09131200000000	0.00000000000000	-12.84882000000000	0.00000000000000	0.00000000000000	-17.75730800000000	0.00000000000000	
17.82993300000000	0.33688300000000	170.26103400000000	-16.11406000000000	0.35271100000000	0.00000000000000	0.10377800000000	-56.43452000000000	701.67930999999999	-39.62827500000000	0.10466600000000	0.00000000000000	-0.09111700000000	0.00000000000000	-12.77208700000000	0.00000000000000	0.00000000000000	-17.73088000000000	0.00000000000000	
17.83160100000000	1.60315700000000	178.11114200000000	-15.60383700000000	0.35435700000000	0.00000000000000	0.10410200000000	-57.09751900000000	696.99013000000002	-38.83230000000000	0.10430300000000	0.00000000000000	-0.09091800000000	0.00000000000000	-12.67946100000000	0.00000000000000	0.00000000000000	-17.70470500000000	0.00000000000000	
17.83326700000000	2.91139400000000	186.14310399999999	-15.05790200000000	0.35593100000000	0.00000000000000	0.10441600000000	-57.76396300000000	692.18371500000001	-38.02231100000000	0.10394800000000	0.00000000000000	-0.09071500000000	0.00000000000000	-12.56784400000000	0.00000000000000	0.00000000000000	-17.67839700000000	0.00000000000000	
17.83492900000000	4.26480700000000	194.33868899999999	-14.47099600000000	0.35743800000000	0.00000000000000	0.10471900000000	-58.43180900000000	687.25754199999994	-37.19887000000000	0.10360000000000	0.00000000000000	-0.09050700000000	0.00000000000000	-12.43373300000000	0.00000000000000	0.00000000000000	-17.65155500000000	0.00000000000000	
17.83660100000000	5.66642500000000	202.67818500000001	-13.83789200000000	0.35887900000000	0.00000000000000	0.10501300000000	-59.09892400000000	682.20910700000002	-36.36256400000000	0.10326000000000	0.00000000000000	-0.09029500000000	0.00000000000000	-12.27358800000000	0.00000000000000	0.00000000000000	-17.62376300000000	0.00000000000000	
17.83826400000000	7.11870400000000	211.14169699999999	-13.15387800000000	0.36025700000000	0.00000000000000	0.10529800000000	-59.76308600000000	677.03594599999997	-35.51400200000000	0.10292800000000	0.00000000000000	-0.09007800000000	0.00000000000000	-12.08413500000000	0.00000000000000	0.00000000000000	-17.59459300000000	0.00000000000000	
17.83993700000000	8.62325400000000	219.71018100000001	-12.41511500000000	0.36157400000000	0.00000000000000	0.10557300000000	-60.42199700000000	671.73565399999995	-34.65381600000000	0.10260300000000	0.00000000000000	-0.08985700000000	0.00000000000000	-11.86260700000000	0.00000000000000	0.00000000000000	-17.56360500000000	0.00000000000000	
17.84159600000000	10.18067400000000	228.36620900000000	-11.61886900000000	0.36283000000000	0.00000000000000	0.10584000000000	-61.07328400000000	666.30590700000005	-33.78265900000000	0.10228600000000	0.00000000000000	-0.08963200000000	0.00000000000000	-11.60689200000000	0.00000000000000	0.00000000000000	-17.53035000000000	0.00000000000000	
17.84326400000000	11.79047900000000	237.09444400000001	-10.76362500000000	0.36402700000000	0.00000000000000	0.10609900000000	-61.71451000000000	660.74447599999996	-32.90120900000000	0.10197600000000	0.00000000000000	-0.08940300000000	0.00000000000000	-11.31562600000000	0.00000000000000	0.00000000000000	-17.49437200000000	0.00000000000000	
17.84492900000000	13.45111800000000	245.88186800000000	-9.84909800000000	0.36516600000000	0.00000000000000	0.10634900000000	-62.34318200000000	655.04925600000001	-32.01016600000000	0.10167400000000	0.00000000000000	-0.08917000000000	0.00000000000000	-10.98820500000000	0.00000000000000	0.00000000000000	-17.45521000000000	0.00000000000000	
